<?xml version="1.0" encoding="UTF-8" standalone="no"?>
<!-- Created with Inkscape (http://www.inkscape.org/) -->
<svg
   xmlns:dc="http://purl.org/dc/elements/1.1/"
   xmlns:cc="http://creativecommons.org/ns#"
   xmlns:rdf="http://www.w3.org/1999/02/22-rdf-syntax-ns#"
   xmlns:svg="http://www.w3.org/2000/svg"
   xmlns="http://www.w3.org/2000/svg"
   xmlns:sodipodi="http://sodipodi.sourceforge.net/DTD/sodipodi-0.dtd"
   xmlns:inkscape="http://www.inkscape.org/namespaces/inkscape"
   width="399.69"
   height="105"
   id="svg2"
   sodipodi:version="0.32"
   inkscape:version="0.46"
   version="1.0"
   sodipodi:docname="elegans.svg"
   inkscape:output_extension="org.inkscape.output.svg.inkscape">
  <defs
     id="defs4">
    <inkscape:perspective
       sodipodi:type="inkscape:persp3d"
       inkscape:vp_x="0 : 526.18109 : 1"
       inkscape:vp_y="0 : 1000 : 0"
       inkscape:vp_z="744.09448 : 526.18109 : 1"
       inkscape:persp3d-origin="372.04724 : 350.78739 : 1"
       id="perspective10" />
    <filter
       inkscape:collect="always"
       id="filter3275"
       x="-0.061664376"
       width="1.1233288"
       y="-2.5273793"
       height="6.0547585">
      <feGaussianBlur
         inkscape:collect="always"
         stdDeviation="2.1061494"
         id="feGaussianBlur3277" />
    </filter>
    <filter
       inkscape:collect="always"
       id="filter3279"
       x="-0.061664376"
       width="1.1233288"
       y="-2.5273793"
       height="6.0547585">
      <feGaussianBlur
         inkscape:collect="always"
         stdDeviation="2.1061494"
         id="feGaussianBlur3281" />
    </filter>
  </defs>
  <sodipodi:namedview
     id="base"
     pagecolor="#ffffff"
     bordercolor="#666666"
     borderopacity="1.0"
     gridtolerance="10000"
     guidetolerance="10"
     objecttolerance="10"
     inkscape:pageopacity="0.0"
     inkscape:pageshadow="2"
     inkscape:zoom="3.959798"
     inkscape:cx="198.67061"
     inkscape:cy="47.510111"
     inkscape:document-units="px"
     inkscape:current-layer="layer1"
     showgrid="false"
     units="cm"
     showborder="true"
     inkscape:showpageshadow="false"
     inkscape:window-width="1678"
     inkscape:window-height="1000"
     inkscape:window-x="2"
     inkscape:window-y="2" />
  <metadata
     id="metadata7">
    <rdf:RDF>
      <cc:Work
         rdf:about="">
        <dc:format>image/svg+xml</dc:format>
        <dc:type
           rdf:resource="http://purl.org/dc/dcmitype/StillImage" />
      </cc:Work>
    </rdf:RDF>
  </metadata>
  <g
     inkscape:label="Layer 1"
     inkscape:groupmode="layer"
     id="layer1"
     transform="translate(-3.1191254,-1.3406973)">
    <text
       xml:space="preserve"
       style="font-size:9px;font-style:italic;font-variant:normal;font-weight:normal;font-stretch:normal;text-align:start;line-height:100%;writing-mode:lr-tb;text-anchor:start;fill:#000000;fill-opacity:1;stroke:none;stroke-width:1px;stroke-linecap:butt;stroke-linejoin:miter;stroke-opacity:1;font-family:Liberation Serif;-inkscape-font-specification:Liberation Serif Italic"
       x="7.1566834"
       y="12.437972"
       id="text2383"
       sodipodi:linespacing="100%"><tspan
         sodipodi:role="line"
         id="tspan2500"
         x="7.1566834"
         y="12.437972">C. elegans</tspan><tspan
         sodipodi:role="line"
         id="tspan2502"
         x="7.1566834"
         y="21.437973">C. elegans</tspan><tspan
         sodipodi:role="line"
         id="tspan2504"
         x="7.1566834"
         y="30.437973"></tspan><tspan
         sodipodi:role="line"
         id="tspan2506"
         x="7.1566834"
         y="39.437973">C. elegans</tspan><tspan
         sodipodi:role="line"
         id="tspan2508"
         x="7.1566834"
         y="48.437973">C. briggsae</tspan><tspan
         sodipodi:role="line"
         id="tspan2510"
         x="7.1566834"
         y="57.437973">C. brenneri</tspan><tspan
         sodipodi:role="line"
         id="tspan2512"
         x="7.1566834"
         y="66.437973">C. remanei</tspan><tspan
         sodipodi:role="line"
         id="tspan2514"
         x="7.1566834"
         y="75.437973">C. remanei</tspan><tspan
         sodipodi:role="line"
         id="tspan2516"
         x="7.1566834"
         y="84.437973">C. japanica</tspan></text>
    <rect
       style="fill:none;fill-opacity:0;fill-rule:nonzero;stroke:#000000;stroke-width:1.80569792;stroke-linecap:round;stroke-linejoin:round;stroke-miterlimit:4;stroke-dasharray:none;stroke-dashoffset:0;stroke-opacity:1"
       id="rect2405"
       width="24.480015"
       height="57.337162"
       x="286.47272"
       y="30.76939" />
    <path
       style="fill:none;fill-rule:evenodd;stroke:#000000;stroke-width:2;stroke-linecap:butt;stroke-linejoin:miter;stroke-miterlimit:4;stroke-dasharray:none;stroke-opacity:1;filter:url(#filter3275)"
       d="M 335.77593,102.86374 L 415.74803,102.86374"
       id="path3247"
       transform="matrix(0.9630306,0,0,1,0.910598,-13.424211)" />
    <path
       style="fill:none;fill-rule:evenodd;stroke:#000000;stroke-width:2;stroke-linecap:butt;stroke-linejoin:miter;stroke-miterlimit:4;stroke-dasharray:none;stroke-opacity:1;filter:url(#filter3279)"
       d="M 213.13308,102.86374 L 293.10518,102.86374"
       id="path3249"
       transform="matrix(1.4128247,0,0,1,-132.87975,-13.424211)" />
    <text
       xml:space="preserve"
       style="font-size:12px;font-style:normal;font-variant:normal;font-weight:normal;font-stretch:normal;text-align:end;line-height:100%;writing-mode:lr-tb;text-anchor:end;fill:#000000;fill-opacity:1;stroke:none;stroke-width:1px;stroke-linecap:butt;stroke-linejoin:miter;stroke-opacity:1;font-family:Liberation Sans;-inkscape-font-specification:Liberation Sans"
       x="245.36993"
       y="102.49023"
       id="text3283"
       sodipodi:linespacing="100%"><tspan
         sodipodi:role="line"
         id="tspan2449"
         x="245.36993"
         y="102.49023">1 helix</tspan></text>
    <text
       xml:space="preserve"
       style="font-size:12px;font-style:normal;font-variant:normal;font-weight:normal;font-stretch:normal;text-align:end;line-height:100%;writing-mode:lr-tb;text-anchor:end;fill:#000000;fill-opacity:1;stroke:none;stroke-width:1px;stroke-linecap:butt;stroke-linejoin:miter;stroke-opacity:1;font-family:Liberation Sans;-inkscape-font-specification:Liberation Sans"
       x="383.4176"
       y="102.49023"
       id="text3287"
       sodipodi:linespacing="100%"><tspan
         sodipodi:role="line"
         id="tspan2455"
         x="383.4176"
         y="102.49023">2 helix</tspan></text>
    <path
       style="fill:none;fill-rule:evenodd;stroke:#000000;stroke-width:1.68179286px;stroke-linecap:butt;stroke-linejoin:miter;stroke-opacity:1"
       d="M 264.2977,23.64031 L 273.76199,23.64031"
       id="path2402" />
    <path
       style="font-size:12px;font-style:normal;font-variant:normal;font-weight:normal;font-stretch:normal;text-align:start;line-height:100%;writing-mode:lr-tb;text-anchor:start;fill:#000000;fill-opacity:1;stroke:none;stroke-width:1px;stroke-linecap:butt;stroke-linejoin:miter;stroke-opacity:1;font-family:Liberation Sans;-inkscape-font-specification:Liberation Sans"
       d="M 208.62249,101.07362 C 208.52093,101.29237 208.40569,101.49354 208.27679,101.67714 C 208.15179,101.86073 208.00335,102.02089 207.83148,102.1576 C 207.66351,102.29042 207.47015,102.39393 207.2514,102.46815 C 207.03655,102.54237 206.79241,102.57948 206.51898,102.57948 C 205.7182,102.57948 205.12835,102.30995 204.74945,101.77089 C 204.37445,101.23182 204.18695,100.41542 204.18695,99.32167 C 204.18695,98.2123 204.39788,97.38222 204.81976,96.83143 C 205.24554,96.28066 205.86663,96.00527 206.68304,96.00526 C 206.95257,96.00527 207.19671,96.04433 207.41546,96.12245 C 207.63421,96.19667 207.82757,96.30214 207.99554,96.43885 C 208.16351,96.57167 208.30804,96.72988 208.42914,96.91346 C 208.55413,97.09316 208.65569,97.28847 208.73382,97.4994 L 208.74554,97.4994 C 208.76116,97.41738 208.78265,97.32167 208.80999,97.21229 C 208.83733,97.10292 208.86858,96.98769 208.90374,96.86659 C 208.9428,96.74159 208.98382,96.6166 209.02679,96.49159 C 209.07366,96.36269 209.12249,96.23964 209.17328,96.12245 L 210.27484,96.12245 C 210.18889,96.30605 210.101,96.52285 210.01117,96.77284 C 209.92132,97.02284 209.83733,97.28456 209.75921,97.558 C 209.68499,97.82753 209.61858,98.09902 209.55999,98.37245 C 209.5014,98.64198 209.46233,98.89003 209.44281,99.11659 C 209.45452,99.51894 209.48186,99.89198 209.52484,100.23573 C 209.57171,100.57558 209.62444,100.88612 209.68304,101.16737 C 209.74554,101.44862 209.81194,101.69667 209.88226,101.91151 C 209.95257,102.12636 210.02288,102.30995 210.0932,102.46229 L 209.02093,102.46229 C 208.97796,102.35292 208.93499,102.23378 208.89203,102.10487 C 208.85296,101.97596 208.8178,101.84901 208.78656,101.72401 C 208.7553,101.59511 208.72601,101.47401 208.69867,101.36073 C 208.67522,101.24745 208.65765,101.15175 208.64593,101.07362 L 208.62249,101.07362 M 205.29437,99.28651 C 205.29437,99.72401 205.32171,100.09901 205.3764,100.41151 C 205.43109,100.72401 205.51507,100.98183 205.62835,101.18495 C 205.74554,101.38417 205.89398,101.53065 206.07367,101.6244 C 206.25726,101.71815 206.47796,101.76503 206.73578,101.76503 C 206.94671,101.76503 207.14984,101.71425 207.34515,101.61268 C 207.54046,101.51112 207.71819,101.35682 207.87835,101.14979 C 208.03851,100.93886 208.17718,100.67714 208.29437,100.36464 C 208.41546,100.05214 208.50335,99.68495 208.55804,99.26307 C 208.51116,98.92714 208.4428,98.60878 208.35296,98.308 C 208.26702,98.00722 208.15374,97.7455 208.01312,97.52284 C 207.8764,97.29628 207.70843,97.11659 207.50921,96.98378 C 207.30999,96.85097 207.07366,96.78456 206.80023,96.78456 C 206.54241,96.78456 206.31976,96.82949 206.13226,96.91932 C 205.94476,97.00917 205.78851,97.1537 205.66351,97.35292 C 205.53851,97.55214 205.44476,97.81191 205.38226,98.13221 C 205.32367,98.44862 205.29437,98.83339 205.29437,99.28651"
       id="text2444" />
    <path
       style="font-size:12px;font-style:normal;font-variant:normal;font-weight:normal;font-stretch:normal;text-align:start;line-height:100%;writing-mode:lr-tb;text-anchor:start;fill:#000000;fill-opacity:1;stroke:none;stroke-width:1px;stroke-linecap:butt;stroke-linejoin:miter;stroke-opacity:1;font-family:Liberation Sans;-inkscape-font-specification:Liberation Sans"
       d="M 346.725,101.10731 C 346.62344,101.32606 346.5082,101.52723 346.3793,101.71083 C 346.2543,101.89442 346.10586,102.05458 345.93399,102.19129 C 345.76602,102.32411 345.57266,102.42762 345.35391,102.50184 C 345.13906,102.57606 344.89492,102.61317 344.62149,102.61317 C 343.82071,102.61317 343.23086,102.34364 342.85196,101.80458 C 342.47696,101.26551 342.28946,100.44911 342.28946,99.35536 C 342.28946,98.24599 342.50039,97.41591 342.92227,96.86512 C 343.34805,96.31435 343.96914,96.03896 344.78555,96.03895 C 345.05508,96.03896 345.29922,96.07802 345.51797,96.15614 C 345.73672,96.23036 345.93008,96.33583 346.09805,96.47254 C 346.26602,96.60536 346.41055,96.76357 346.53165,96.94715 C 346.65664,97.12685 346.7582,97.32216 346.83633,97.53309 L 346.84805,97.53309 C 346.86367,97.45107 346.88516,97.35536 346.9125,97.24598 C 346.93984,97.13661 346.97109,97.02138 347.00625,96.90028 C 347.04531,96.77528 347.08633,96.65029 347.1293,96.52528 C 347.17617,96.39638 347.225,96.27333 347.27579,96.15614 L 348.37735,96.15614 C 348.2914,96.33974 348.20351,96.55654 348.11368,96.80653 C 348.02383,97.05653 347.93984,97.31825 347.86172,97.59169 C 347.7875,97.86122 347.72109,98.13271 347.6625,98.40614 C 347.60391,98.67567 347.56484,98.92372 347.54532,99.15028 C 347.55703,99.55263 347.58437,99.92567 347.62735,100.26942 C 347.67422,100.60927 347.72695,100.91981 347.78555,101.20106 C 347.84805,101.48231 347.91445,101.73036 347.98477,101.9452 C 348.05508,102.16005 348.12539,102.34364 348.19571,102.49598 L 347.12344,102.49598 C 347.08047,102.38661 347.0375,102.26747 346.99454,102.13856 C 346.95547,102.00965 346.92031,101.8827 346.88907,101.7577 C 346.85781,101.6288 346.82852,101.5077 346.80118,101.39442 C 346.77773,101.28114 346.76016,101.18544 346.74844,101.10731 L 346.725,101.10731 M 343.39688,99.3202 C 343.39688,99.7577 343.42422,100.1327 343.47891,100.4452 C 343.5336,100.7577 343.61758,101.01552 343.73086,101.21864 C 343.84805,101.41786 343.99649,101.56434 344.17618,101.65809 C 344.35977,101.75184 344.58047,101.79872 344.83829,101.79872 C 345.04922,101.79872 345.25235,101.74794 345.44766,101.64637 C 345.64297,101.54481 345.8207,101.39051 345.98086,101.18348 C 346.14102,100.97255 346.27969,100.71083 346.39688,100.39833 C 346.51797,100.08583 346.60586,99.71864 346.66055,99.29676 C 346.61367,98.96083 346.54531,98.64247 346.45547,98.34169 C 346.36953,98.04091 346.25625,97.77919 346.11563,97.55653 C 345.97891,97.32997 345.81094,97.15028 345.61172,97.01747 C 345.4125,96.88466 345.17617,96.81825 344.90274,96.81825 C 344.64492,96.81825 344.42227,96.86318 344.23477,96.95301 C 344.04727,97.04286 343.89102,97.18739 343.76602,97.38661 C 343.64102,97.58583 343.54727,97.8456 343.48477,98.1659 C 343.42618,98.48231 343.39688,98.86708 343.39688,99.3202"
       id="path2451" />
    <text
       xml:space="preserve"
       style="font-size:9px;font-style:normal;font-variant:normal;font-weight:normal;font-stretch:normal;text-align:end;line-height:100%;writing-mode:lr-tb;text-anchor:end;fill:#000000;fill-opacity:1;stroke:none;stroke-width:1px;stroke-linecap:butt;stroke-linejoin:miter;stroke-opacity:1;font-family:Liberation Mono;-inkscape-font-specification:Liberation Mono"
       x="401.10965"
       y="12.562332"
       id="text2431"
       sodipodi:linespacing="100%"><tspan
         sodipodi:role="line"
         id="tspan2536"
         x="401.10965"
         y="12.562332">(hcp-3)          212 IQKAPFARLV REIMQTSTPF GADCRIRSDA ISALQEAAEA</tspan><tspan
         sodipodi:role="line"
         id="tspan2538"
         x="401.10965"
         y="21.562332">(his-2)           63 IRRAPFQRLV REIAQDFKTD ---LRFQSSA VMALQEAAEA</tspan><tspan
         sodipodi:role="line"
         id="tspan2540"
         x="401.10965"
         y="30.562332"></tspan><tspan
         sodipodi:role="line"
         id="tspan2542"
         x="401.10965"
         y="39.562332">(cpar-1)         185 IPKAPFARLV REIMQTSTPF SSDLRIRSDA INALQEASEA</tspan><tspan
         sodipodi:role="line"
         id="tspan2544"
         x="401.10965"
         y="48.562332">(BP:CBP08370)    268 IQKAPFVRLV HEIIREQTYK SQDYRIRADA LMALQEAAEA</tspan><tspan
         sodipodi:role="line"
         id="tspan2546"
         x="401.10965"
         y="57.562332">(CN:CN07949)     265 IQKAPFARLV HEIIREATTN SGDYRVRADA LLALQEGAEA</tspan><tspan
         sodipodi:role="line"
         id="tspan2548"
         x="401.10965"
         y="66.562332">(RP:RP14219)     251 IQKAPFARLV QEILRETTNE SHDYRIRADA LMALQEGAEA</tspan><tspan
         sodipodi:role="line"
         id="tspan2550"
         x="401.10965"
         y="75.562332">(RP:RP14683)     272 IQKAPFARLV HEIMREATSE SQDFRIRADA LMALQEAAEA</tspan><tspan
         sodipodi:role="line"
         id="tspan2552"
         x="401.10965"
         y="84.562332">(JA:JA30536)     272 IQKAPFRRLV HQIIQEATGF DSGFRIRADA MSALQEAAEA</tspan></text>
  </g>
</svg>
